PathFileType	4	(X/Y/Z)	RBDS026\RBDS026runT45.trc
DataRate	CameraRate	NumFrames	NumMarkers	Units	OrigDataRate	OrigDataStartFrame	OrigNumFrames
150.000000	150.000000	5	33	mm	150.000000	1687	4500
Frame#	Time	L.ASIS			L.Heel.Bottom			L.Heel.Lateral			L.Heel.Top			L.Iliac.Crest			L.MT1			L.MT5			L.PSIS			L.Shank.Bottom.Lateral			L.Shank.Bottom.Medial			L.Shank.Top.Lateral			L.Shank.Top.Medial			L.Thigh.Bottom.Lateral			L.Thigh.Bottom.Medial			L.Thigh.Top.Lateral			L.Thigh.Top.Medial			R.ASIS			R.ASY			R.Heel.Bottom			R.Heel.Lateral			R.Heel.Top			R.Iliac.Crest			R.MT1			R.MT5			R.PSIS			R.Shank.Bottom.Lateral			R.Shank.Bottom.Medial			R.Shank.Top.Lateral			R.Shank.Top.Medial			R.Thigh.Bottom.Lateral			R.Thigh.Bottom.Medial			R.Thigh.Top.Lateral			R.Thigh.Top.Medial			
		X1	Y1	Z1	X2	Y2	Z2	X3	Y3	Z3	X4	Y4	Z4	X5	Y5	Z5	X6	Y6	Z6	X7	Y7	Z7	X8	Y8	Z8	X9	Y9	Z9	X10	Y10	Z10	X11	Y11	Z11	X12	Y12	Z12	X13	Y13	Z13	X14	Y14	Z14	X15	Y15	Z15	X16	Y16	Z16	X17	Y17	Z17	X18	Y18	Z18	X19	Y19	Z19	X20	Y20	Z20	X21	Y21	Z21	X22	Y22	Z22	X23	Y23	Z23	X24	Y24	Z24	X25	Y25	Z25	X26	Y26	Z26	X27	Y27	Z27	X28	Y28	Z28	X29	Y29	Z29	X30	Y30	Z30	X31	Y31	Z31	X32	Y32	Z32	X33	Y33	Z33	

1688	11.24666666666667	2267.97255612511	1054.708397956642	865.2928429025545	1505.207346363049	570.7589215560382	991.2862099002368	1505.430052025667	543.5100634805909	936.6035885996847	1547.874491264633	555.0316872231747	976.3218068922297	2209.826690712049	1153.923391925824	837.0837046337656	1480.716038671978	346.3838911993637	988.6970011679375	1453.044493448731	404.5621518076435	895.8424837377114	2111.071026769393	1134.430675384503	952.629472822949	1614.101988033667	515.0308177043462	890.5477241673825	1610.081401203364	554.1502436988319	923.1987011873	1685.260927640364	541.8870550152769	862.0191554346783	1684.015878611048	584.1276730277385	893.8258137158526	2008.572437668515	710.5846998986613	822.2139933151143	1966.813390446592	732.4147803709657	877.4874598617774	2045.423744694933	813.4730481821438	810.0874857292532	2007.226174970729	833.1227322656923	865.6902209212074	2276.714743489263	1082.544259135354	1103.168380505973	2549.653925265963	180.7028797677195	1002.253945475072	2381.017520786375	96.55821069441375	971.6316310652966	2407.313278024898	114.1934658275379	1021.252696650324	2380.767652722152	142.112923759326	979.3867935453316	2205.169451066581	1157.049679573184	1153.467689046335	2596.002958327556	155.7049802676945	948.6113831879596	2568.780382641682	123.1803130183105	1052.403968077051	2113.492831807275	1133.291303372532	1051.203922859464	2430.642662831412	239.5576406766946	1058.359470349316	2384.144553428003	238.2101801394564	1028.005675494919	2406.955328289221	311.4728264254201	1088.141126380969	2362.365010361639	309.5078837816889	1057.986442484434	2365.954091306266	691.9557038301225	1146.105011214766	2303.804112758584	663.493376570481	1126.172944876222	2315.08551164097	788.0255924385676	1167.501844470363	2255.351510230914	760.033726148079	1149.688965337079	
1689	11.25333333333333	2268.385399380179	1053.344942247142	864.7568356991158	1510.191597171454	592.5866315900163	991.1039960348837	1508.723047611624	563.8327818828423	937.0866535227067	1551.970178982881	574.4156653522762	976.0394108859563	2208.627621004913	1152.241532694449	836.4201012640558	1475.023278434604	368.8644756760221	994.0742265587254	1449.202615224236	426.3090417091341	900.1178638149078	2110.496423408368	1131.433676964672	951.4074878826294	1615.975472595448	529.0331144349861	891.1925254881501	1613.591740738363	569.1229901716	922.8315901896216	1688.279626774562	551.9946600100803	862.0894956934351	1688.769587753613	595.1546011930868	892.7979968737259	2012.610288953337	706.6202122565639	821.4624825602895	1970.617721522374	728.1588828144505	876.6713156760327	2048.570725881541	809.8020164446198	809.1814649465839	2009.992466981272	829.2479734311008	864.5873225224011	2275.616511538067	1080.715084872041	1103.09759366897	2559.890143518177	181.2019630109277	1001.133281744022	2394.951343128965	88.84564099112309	970.9761042325547	2421.065482686785	106.8786435551109	1020.55123916685	2392.356061878304	134.243631465543	979.5540433539408	2203.703220762371	1154.591158401238	1152.888250652754	2606.766944064135	159.8441768096903	946.45215164251	2582.580559631577	123.4394510576754	1049.944101378464	2112.361809919714	1130.496540104084	1050.077202034219	2437.428520051343	234.7336929478664	1058.283359582269	2391.170222434771	231.5739145662257	1027.538021826346	2410.58852978509	305.6194054336145	1088.158123097478	2366.327771836984	301.8881919613209	1057.556714985928	2359.85843348028	686.5948655999319	1146.79309387519	2297.306353375797	659.4262681800108	1126.307689548968	2310.848237270905	783.6969055222651	1167.759153670098	2250.635185146362	756.8876662840071	1149.604260475227	
1690	11.26	2268.867165668042	1051.470184159904	864.4229215732532	1517.155071605298	613.0773679466511	991.4143677682446	1513.828828462669	583.2871365247536	937.9138974554694	1557.89154634831	592.6287076902746	976.1222601538716	2208.03805305985	1149.979305671428	835.6535280768542	1471.465603335498	390.6452073349149	998.4734859420049	1447.218221062128	447.8149540905041	903.9204186876738	2109.966275674773	1128.109755369914	949.9443161684615	1619.279825513044	542.4202438120875	891.8500340481201	1618.641347170171	583.230463030035	922.6445397081876	1692.473600028166	561.5805760846539	862.2167459379424	1694.788263416129	605.4091520851953	891.9967391610442	2016.92730509665	702.1012342827489	820.6119966803955	1974.599982293841	723.3305958081881	875.6737063356376	2051.907335783933	805.5996131596116	808.1776971959174	2012.870048758991	824.8081786705952	863.3280100643436	2274.378336774462	1078.691077643494	1103.004809126603	2567.309124446901	180.8769932287275	1000.939004013816	2405.790081281003	81.94815216453438	970.2971060607041	2431.578098517479	100.1150186166028	1019.969539487084	2401.208638905334	127.1167817451149	979.7357718927583	2202.211657488082	1152.129907339892	1152.155254465469	2614.670667672363	162.7896943088872	945.4877027515244	2592.805990906879	122.7864730987352	1048.429523632748	2111.22950677526	1127.484557111469	1048.757795445757	2441.881466989882	230.1125672409892	1058.476308870401	2396.071974689143	225.475907229611	1027.134961208198	2412.365257201346	300.1145124845815	1088.233940992454	2368.613905165078	294.9477562038264	1056.975183558644	2354.036492693918	681.305602541074	1147.366053186201	2291.146136960027	655.3606791569573	1126.353452871301	2306.813962213079	779.3555080294635	1167.90930052765	2246.171369550893	753.6793140419923	1149.430342080643	
1691	11.26666666666667	2269.386558867331	1049.116736313135	864.2894596996134	1525.954940275338	632.0647323445073	992.1822150366845	1520.702346906517	601.7490576895332	939.0301681816961	1565.522977642585	609.5135389986335	976.5680693140583	2208.064078085878	1147.16583664936	834.7950586066204	1469.955347287938	411.5774898597387	1001.809843551846	1447.168343821181	468.9712725396179	907.1183232537173	2109.486711096447	1124.51327559306	948.2921541257591	1623.990524911738	555.1174874036381	892.5214589499695	1625.19426071298	596.3846324400155	922.668324003703	1697.848374729047	570.579579796703	862.4119893068394	1702.074721456678	614.8001727224282	891.4683401610308	2021.519531740565	697.0203565842287	819.6401089762071	1978.746642232556	717.9036834091027	874.4760457681608	2055.413149548829	800.8631367323926	807.0743813880584	2015.829347493534	819.7853270338906	861.9106156763646	2273.022715402676	1076.470348855996	1102.909313116369	2571.863774118468	179.3518467175951	1001.654795924235	2413.269177223282	75.69151740913388	969.5592318617526	2438.579242134815	93.70782019275168	1019.482251972181	2407.12872507553	120.5963732987092	979.8703052848188	2200.669728899173	1149.635367614011	1151.302322679514	2619.731343955158	164.043446364388	945.7316988641361	2599.302679253946	120.8088967011692	1047.9071028608	2110.128263333026	1124.281806762528	1047.292048157763	2444.005958493939	225.4642562193134	1058.91668759365	2398.782578620052	219.7123831859157	1026.840724093829	2412.335470620993	294.7770511805764	1088.389764532754	2369.199045227148	288.5305709696249	1056.334479167257	2348.581548814113	676.1085766907497	1147.807652327343	2285.421863736636	651.2815215017941	1126.30347813838	2303.018898140661	774.9947678437923	1167.955874487005	2242.008032963782	750.3710170216791	1149.169910503576	
1692	11.27333333333333	2269.90989461293	1046.318398162173	864.3403463221747	1536.449495012275	649.4270444641544	993.323917369278	1529.295777456796	619.0962880111143	940.3435889572246	1574.753612054382	624.9448976706849	977.3224132453538	2208.67932728473	1143.835325004972	833.86259308434	1470.385170858779	431.5331936720481	1004.06488005021	1449.114758602811	489.6302717871577	909.6162710082517	2109.06052753081	1120.681596202391	946.5097756604113	1630.087396842084	567.0355964654365	893.1854457212909	1633.211353648438	608.4948305898287	922.8961713702854	1704.412775432738	578.9040309437438	862.6614348718382	1710.626326640762	623.2259974471347	891.2191185260808	2026.390373760049	691.3671674134621	818.5281976157841	1983.05878476674	711.8479146012288	873.0695450558168	2059.076331943511	795.5849307878078	805.8722580637524	2018.856366255714	814.1569915267356	860.3410253529091	2271.586711939384	1074.036735564922	1102.822665128012	2573.546527781902	176.3352105541433	1003.180182755143	2417.19675801877	69.91376934714745	968.7440150750598	2441.893204560173	87.49102638828818	1019.062411457276	2409.981266377296	114.5525558981863	979.9061401385784	2199.062388826364	1147.04949791324	1150.370528764084	2621.977389794002	163.2083304827085	947.0874109834994	2602.005719119958	117.2107987035971	1048.341694097456	2109.086237118619	1120.893192642489	1045.731266830201	2443.856447107054	220.5725595454341	1059.563316288045	2399.271457397168	214.074334518617	1026.697777358975	2410.589894968512	289.4229549953573	1088.644067681547	2368.089733219982	282.4582004125164	1055.741730714638	2343.552031427748	670.9941157406225	1148.112736957419	2280.190243661199	647.1482771037633	1126.164804226703	2299.47173341263	770.5847626469885	1167.91135739731	2238.160595684965	746.9049607931626	1148.836081562315	
